<?xml version="1.0" encoding="UTF-8" standalone="no"?>
<svg
   xmlns:dc="http://purl.org/dc/elements/1.1/"
   xmlns:cc="http://creativecommons.org/ns#"
   xmlns:rdf="http://www.w3.org/1999/02/22-rdf-syntax-ns#"
   xmlns:svg="http://www.w3.org/2000/svg"
   xmlns="http://www.w3.org/2000/svg"
   viewBox="0 0 344.89334 372.62668"
   height="372.488722664"
   width="250"
   xml:space="preserve"
   id="svg2"
   version="1.1"><metadata
     id="metadata8"><rdf:RDF><cc:Work
         rdf:about=""><dc:format>image/svg+xml</dc:format><dc:type
           rdf:resource="http://purl.org/dc/dcmitype/StillImage" /></cc:Work></rdf:RDF></metadata><defs
     id="defs6" /><g
     transform="matrix(1.3333333,0,0,-1.3333333,0,372.62667)"
     id="g10"><g
       transform="scale(0.1)"
       id="g12"><path
         id="path14"
         style="fill:#2e2d2d;fill-opacity:1;fill-rule:nonzero;stroke:none"
         d="m 2551.95,435.59 h 3.24 c 3.78,0 6.84,1.262 6.84,4.32 0,2.699 -1.98,4.512 -6.3,4.512 -1.8,0 -3.06,-0.192 -3.78,-0.371 z m -0.18,-16.738 h -6.84 v 29.519 c 2.69,0.539 6.48,0.899 11.33,0.899 5.59,0 8.11,-0.899 10.27,-2.161 1.62,-1.257 2.88,-3.597 2.88,-6.48 0,-3.238 -2.52,-5.758 -6.11,-6.84 v -0.359 c 2.87,-1.078 4.49,-3.239 5.4,-7.211 0.89,-4.5 1.43,-6.289 2.15,-7.367 h -7.38 c -0.9,1.078 -1.44,3.769 -2.34,7.199 -0.54,3.23 -2.34,4.679 -6.13,4.679 h -3.23 z m -18.19,15.476 c 0,-13.137 9.73,-23.578 23.05,-23.578 12.96,0 22.51,10.441 22.51,23.391 0,13.148 -9.55,23.769 -22.69,23.769 -13.14,0 -22.87,-10.621 -22.87,-23.582 z m 53.11,0 c 0,-16.75 -13.14,-29.887 -30.24,-29.887 -16.92,0 -30.43,13.137 -30.43,29.887 0,16.391 13.51,29.524 30.43,29.524 17.1,0 30.24,-13.133 30.24,-29.524" /><path
         id="path16"
         style="fill:#222e3b;fill-opacity:1;fill-rule:nonzero;stroke:none"
         d="m 463.824,349.352 c 6.281,0 11.371,-5.09 11.371,-11.372 V 149.191 c 0,-40.742 17.473,-54.5699 46.582,-54.5699 21.61,0 39.692,8.2379 53.176,18.9099 2.738,2.168 4.332,5.469 4.332,8.957 V 337.98 c 0,6.282 5.09,11.372 11.371,11.372 H 680 c 6.277,0 11.367,-5.09 11.367,-11.372 V 26.0508 c 0,-5.7422 -4.277,-10.582 -9.976,-11.2891 L 592.047,3.73828 C 585.266,2.89844 579.285,8.19141 579.285,15.0313 v 11.1406 c 0,9.539 -11.074,14.8867 -18.469,8.8594 C 536.09,14.8711 504.313,0 469.363,0 403.148,0 363.109,44.3906 363.109,116.441 V 337.98 c 0,6.282 5.094,11.372 11.371,11.372 h 89.344" /><path
         id="path18"
         style="fill:#222e3b;fill-opacity:1;fill-rule:nonzero;stroke:none"
         d="M 775.203,22.2695 V 481.941 c 0,5.739 4.281,10.579 9.981,11.278 l 89.339,11.031 c 6.782,0.828 12.766,-4.461 12.766,-11.289 V 22.2695 c 0,-6.2812 -5.094,-11.3711 -11.371,-11.3711 h -89.344 c -6.281,0 -11.371,5.0899 -11.371,11.3711" /><path
         id="path20"
         style="fill:#222e3b;fill-opacity:1;fill-rule:nonzero;stroke:none"
         d="M 971.094,22.2695 V 481.941 c 0,5.739 4.277,10.579 9.976,11.278 l 89.34,11.031 c 6.78,0.828 12.77,-4.461 12.77,-11.289 V 22.2695 c 0,-6.2812 -5.09,-11.3711 -11.37,-11.3711 h -89.345 c -6.281,0 -11.371,5.0899 -11.371,11.3711" /><path
         id="path22"
         style="fill:#222e3b;fill-opacity:1;fill-rule:nonzero;stroke:none"
         d="m 1348.95,153.91 c 0,4.102 -3.62,7.25 -7.68,6.731 -63.36,-8.082 -86.93,-21.309 -86.93,-50.032 0,-21.8277 17.47,-36.3707 42.23,-36.3707 21.41,0 38.88,8.5117 50.55,20.5703 1.21,1.2422 1.83,2.9297 1.83,4.6719 z m 0.74,-102.2303 C 1325.68,23.2813 1298.73,0 1252.15,0 1193.93,0 1148.8,41.4883 1148.8,93.8789 c 0,63.1211 46.67,114.2231 193.58,119.8711 3.65,0.141 6.57,3.121 6.57,6.77 v 0 c 0,35.671 -18.18,51.671 -59.67,51.671 -32.78,0 -70.68,-12.812 -107.69,-30.621 -3.81,-1.84 -8.36,0.168 -9.51,4.239 l -19.58,69.089 c -0.89,3.141 0.58,6.442 3.48,7.922 35.78,18.2 89.63,37.442 150.77,37.442 117.18,0 155.77,-53.133 154.29,-147.75 l -0.71,-100.422 c 0,-20.84 3.48,-24.8009 20.87,-26.9494 3.73,-0.4609 6.35,-3.9101 5.84,-7.6289 l -9.27,-67.95311 c -0.42,-3.05859 -2.88,-5.48828 -5.95,-5.82812 -70,-7.8711 -105.02,11.71093 -119.94,47.94923 h -2.19" /><path
         id="path24"
         style="fill:#222e3b;fill-opacity:1;fill-rule:nonzero;stroke:none"
         d="m 1711.53,270.738 c -22.53,0 -38.41,-7.84 -52.61,-19.668 -2.61,-2.179 -4.16,-5.379 -4.16,-8.789 V 111.672 c 0,-11.09 2.22,-14.9728 5.87,-16.922 12.28,-6.582 27.71,-10.3203 45.81,-10.3203 48.03,0 75.69,37.8513 75.69,93.8713 0,58.219 -24.76,92.437 -70.6,92.437 z M 1724.62,0.71875 c -21.7,0 -52.13,5.39063 -73.84,12.91015 -1.7,0.5899 -3.49,0.7891 -5.28,0.543 L 1555.6,1.78906 c -6.83,-0.949216 -12.92,4.35938 -12.92,11.26174 V 481.941 c 0,5.739 4.28,10.579 9.98,11.278 L 1642,504.25 c 6.78,0.828 12.76,-4.461 12.76,-11.289 v -152.75 c 0,-9.57 11.04,-14.813 18.51,-8.832 19.61,15.711 45.02,28.883 76.85,28.883 83.68,0 144.09,-68.422 144.09,-176.141 0,-112.0702 -77.88,-183.40225 -169.59,-183.40225" /><path
         id="path26"
         style="fill:#222e3b;fill-opacity:1;fill-rule:nonzero;stroke:none"
         d="m 2122.14,275.109 c -45.84,0 -69.85,-37.121 -69.85,-95.359 0,-57.469 24.72,-93.8711 70.59,-93.8711 45.84,0 69.86,36.4021 69.86,94.6011 0,56.782 -24.73,94.629 -70.6,94.629 z M 2120.69,0 c -101.9,0 -179.78,64.0313 -179.78,179.031 0,115 81.53,181.231 184.16,181.231 101.9,0 179.04,-65.5 179.04,-179.043 C 2304.11,67.6719 2221.88,0 2120.69,0" /><path
         id="path28"
         style="fill:#222e3b;fill-opacity:1;fill-rule:nonzero;stroke:none"
         d="m 2505.81,0 c -83.72,0 -128.82,34.2109 -124.47,122.988 l 4.7,118.864 c 0.23,5.699 -3.81,10.687 -9.44,11.648 l -31.35,5.379 c -5.59,0.961 -9.62,5.891 -9.45,11.551 l 1.62,53.468 c 0.15,4.793 3.27,8.973 7.82,10.461 l 35.72,11.731 c 4.59,1.512 7.73,5.75 7.82,10.59 l 1.09,57.929 c 0.12,6.192 5.17,11.153 11.37,11.153 h 85.81 c 6.32,0 11.43,-5.153 11.37,-11.473 l -0.51,-57.84 c -0.05,-6.32 5.05,-11.469 11.37,-11.469 h 61.3 c 6.39,0 11.53,-5.269 11.37,-11.648 L 2580.32,268 c -0.15,-6.172 -5.2,-11.09 -11.37,-11.09 h -68.13 c -6.15,0 -11.18,-4.89 -11.37,-11.031 l -3.31,-110.52 c -1.45,-31.3 16.76,-44.3785 44.42,-44.3785 10.12,0 21.01,1.9414 32.11,4.9883 6.57,1.7929 13.22,-2.5469 14.23,-9.2774 l 9.67,-64.5117 C 2587.42,16.5 2583.89,11.0586 2578.36,9.51953 2556.17,3.33984 2535.72,0 2505.81,0" /><path
         id="path30"
         style="fill:#222e3b;fill-opacity:1;fill-rule:nonzero;stroke:none"
         d="m 330.574,29.8516 c -14.375,16.457 -20.875,39.8203 -23.246,67.4179 -0.34,3.9605 -2.992,6.6915 -6.273,8.4685 -1.2,0.774 -2.508,1.274 -3.957,1.551 -0.407,0.039 -0.664,0.422 -1.082,0.422 H 261.855 261.82 127.098 c -6.282,0 -11.371,5.09 -11.371,11.367 V 454.43 c 0,6.281 -5.09,11.371 -11.372,11.371 H 11.3711 C 5.08984,465.801 0,460.711 0,454.43 V 22.2695 C 0,15.9883 5.08984,10.8984 11.3711,10.8984 h 250.4839 33.176 27.09 c 9.832,0 14.918,11.543 8.453,18.9532" /><path
         id="path32"
         style="fill:#e32923;fill-opacity:1;fill-rule:nonzero;stroke:none"
         d="M 1665.31,2407.45 H 889.07 c -43.992,0 -79.648,-35.69 -79.648,-79.7 v -602.67 c 0,-43.97 35.656,-79.65 79.648,-79.65 h 776.24 c 43.95,0 79.67,35.68 79.67,79.65 v 602.67 c 0,44.01 -35.72,79.7 -79.67,79.7" /><path
         id="path34"
         style="fill:#ffffff;fill-opacity:1;fill-rule:nonzero;stroke:none"
         d="m 1034.93,2126.35 h 19.67 c 0.08,-38.14 30.94,-69.01 69.09,-69.08 38.16,0.07 69.02,30.94 69.1,69.08 h 0.02 19.67 c -0.02,-49.01 -39.76,-88.74 -88.79,-88.75 -49.02,0.01 -88.74,39.74 -88.76,88.75" /><path
         id="path36"
         style="fill:#ffffff;fill-opacity:1;fill-rule:nonzero;stroke:none"
         d="m 1280.11,1825.64 c -84.18,0.14 -154.39,57.39 -154.68,131.33 h 19.65 c 0,-30.29 14.58,-57.9 38.92,-78.36 24.32,-20.41 58.34,-33.29 96.11,-33.29 37.76,0 71.78,12.88 96.12,33.29 24.36,20.48 38.92,48.07 38.92,78.36 h 0.02 19.65 c -0.31,-73.94 -70.51,-131.19 -154.71,-131.33" /><path
         id="path38"
         style="fill:#ffffff;fill-opacity:1;fill-rule:nonzero;stroke:none"
         d="m 1418.33,2037.6 c -49.03,0.01 -88.75,39.74 -88.76,88.75 h 19.67 c 0.08,-38.14 30.93,-69.01 69.09,-69.08 38.16,0.07 69.02,30.94 69.09,69.08 v 0 h 19.68 c 0,-49.01 -39.74,-88.74 -88.77,-88.75" /><path
         id="path40"
         style="fill:#e32923;fill-opacity:1;fill-rule:nonzero;stroke:none"
         d="M 1972.26,1589.92 H 587.602 c -74.77,0 -135.391,-60.66 -135.391,-135.42 V 666.922 h 301.973 v 522.408 h 53.421 V 666.922 h 937.115 v 522.408 h 53.44 V 666.922 h 309.48 V 1454.5 c 0,74.76 -60.63,135.42 -135.38,135.42" /><path
         id="path42"
         style="fill:#e32923;fill-opacity:1;fill-rule:nonzero;stroke:none"
         d="m 1884.55,1875.54 c 0,-24.99 -20.26,-45.28 -45.24,-45.28 v 0 c -25.03,0 -45.28,20.29 -45.28,45.28 v 301.8 c 0,24.99 20.25,45.24 45.28,45.24 v 0 c 24.98,0 45.24,-20.25 45.24,-45.24 v -301.8" /><path
         id="path44"
         style="fill:#e32923;fill-opacity:1;fill-rule:nonzero;stroke:none"
         d="m 760.391,1875.54 c 0,-24.99 -20.297,-45.28 -45.278,-45.28 v 0 c -25.004,0 -45.285,20.29 -45.285,45.28 v 301.8 c 0,24.99 20.281,45.24 45.285,45.24 v 0 c 24.981,0 45.278,-20.25 45.278,-45.24 v -301.8" /><path
         id="path46"
         style="fill:#e32923;fill-opacity:1;fill-rule:nonzero;stroke:none"
         d="m 1360.17,2711.73 c 0,45.84 -37.14,82.97 -82.95,82.97 -45.87,0 -83.03,-37.13 -83.03,-82.97 0,-32.88 19.19,-61.22 46.92,-74.66 l -24.28,-190.57 h 121.4 l -24.32,190.88 c 27.39,13.55 46.26,41.71 46.26,74.35" /></g></g></svg>
