<svg xmlns="http://www.w3.org/2000/svg" viewBox="0 0 153.27 126.84" width="255" height="211">
<defs>
<style>.mcb{fill:#012535;}</style>
</defs>
<title>Mediacurrent</title>
<path class="mcb" d="M98.42 32.67C89.31 32.67 86 39.31 84 42.9h-.18c-.46-5.16-1.66-10.23-11.05-10.23-8.66 0-12.16 6.91-13.73 9.86h-.18v-9.86l-16.25 2.21v2c3.59 0 6.9.83 6.9 7.38V53c3.19-.92 6.38-1.74 9.59-2.43.86-5.55 4.07-12.31 10.59-12.31 3.56 0 4.58 2.65 4.8 10.15a78.36 78.36 0 0 1 9.69 0c.21 0 .4 0 .6.06 1.51-5 4.94-10.17 9.86-10.17 4.52 0 5 2.89 5 12.41 3.14.69 6.24 1.43 9.31 2.2V48.7c-.03-10.31-.77-16.03-10.53-16.03z"/><path class="mcb" d="M108.92 57.4c-8.28-2.09-16.14-4-24.76-4.57L79 52.7c-17.33.12-34.79 4.35-51.88 10.92a210.15 210.15 0 0 1 22.4-4.51v6.81c0 6.36-1.57 8-6.9 8v2H64.9v-2c-4.69 0-6.08-1.65-6.08-8V58c5.31-.52 10.59-.8 15.74-.81v8.73c0 6.36-1.38 8-6.08 8v2h21.47v-2c-4.7 0-6.07-1.65-6.07-8v-8.49A98.74 98.74 0 0 1 99.62 60v6c0 6.36-1.29 8-6.09 8v2h22.3v-2c-5.44 0-6.91-1.65-6.91-8v-3.79c3.81 1 7.82 1.92 12 2.8s6-1.44 5.54-3c-3.77-.87-17.54-4.61-17.54-4.61zM26.67 92.76c1 0 1.34-.32 1.34-1.55V87c0-1.26-.64-1.42-1.34-1.42v-.39l3.13-.43v1.91a3 3 0 0 1 2.65-1.91c1.82 0 2 1 2.14 2a3.07 3.07 0 0 1 2.79-2c1.89 0 2 1.1 2 3.1v3.33c0 1.23.28 1.55 1.34 1.55v.39h-4.21v-.39c.93 0 1.17-.32 1.17-1.55v-2.83c0-1.92-.07-2.49-1-2.49-1.3 0-2.08 1.89-2.08 3v2.39c0 1.23.27 1.55 1.17 1.55v.39h-4.1v-.39c.91 0 1.17-.32 1.17-1.55V88.6c0-2.06-.14-2.72-.94-2.72-1.5 0-2.1 1.85-2.1 3v2.39c0 1.23.27 1.55 1.17 1.55v.39h-4.3zM47.9 92.87a7 7 0 0 1-2.46.46c-2.74 0-4.36-1.6-4.36-4.56 0-2.69 1.34-4 3.72-4 2.79 0 3.26 1.87 3.26 3.37H43c0 1.87.71 4.38 3.24 4.38a4.67 4.67 0 0 0 1.64-.3zm-1.64-5.45c0-1.12-.3-2-1.53-2s-1.73 1.31-1.73 2zM55 91.87a2.79 2.79 0 0 1-2.58 1.46c-2.44 0-3-2.19-3-4.27 0-2.4.89-4.27 3.36-4.27A2.47 2.47 0 0 1 55 86.07V83c0-1.26-.64-1.42-1.34-1.42v-.39l3.13-.43v10.33c0 1.26.62 1.42 1.34 1.42v.39l-3.13.43zm-1.8.44c1.5 0 1.8-1.55 1.8-3.26 0-2.17-.41-3.42-1.8-3.42s-1.89 1.74-1.89 3.42c.01 1.84.42 3.27 1.9 3.27zM58.71 92.76c1.05 0 1.34-.32 1.34-1.55V87c0-1.26-.64-1.42-1.34-1.42v-.39l3.13-.43v6.43c0 1.23.28 1.55 1.33 1.55v.39h-4.46zm1.16-10.54a1.09 1.09 0 0 1 1.1-1.1 1.11 1.11 0 1 1 0 2.23 1.09 1.09 0 0 1-1.11-1.13zM72 93a5.56 5.56 0 0 1-1.87.32 1.27 1.27 0 0 1-1.41-1.21 3.22 3.22 0 0 1-2.44 1.21 2.21 2.21 0 0 1-2.33-2c0-2.49 3.65-2.65 4.75-2.71v-.89c0-1 0-2.31-1.23-2.31-1.76 0-.55 2.14-2.17 2.14a.92.92 0 0 1-1-.91c0-1.28 1.8-1.83 3.26-1.83 2.24 0 3 .89 3 2.92v3.54c0 1.09.21 1.48.8 1.48a2.45 2.45 0 0 0 .69-.16zm-3.29-3.76c-.68 0-2.81.12-2.81 1.8a1.12 1.12 0 0 0 1.1 1.28c1 0 1.69-.73 1.69-2zM78.87 92.9a5.38 5.38 0 0 1-2.28.43c-2.85 0-4.18-1.71-4.18-4.65 0-2.12 1-3.9 3.63-3.9 1.39 0 2.88.69 2.88 1.83a1 1 0 0 1-1.09 1c-1.09 0-1-1.25-1.09-1.6a.76.76 0 0 0-.85-.59c-1.1 0-1.55 1.1-1.55 2.92s.62 4.22 2.94 4.22a5.87 5.87 0 0 0 1.58-.27zM85.83 91.23c-.37.71-1.14 2.1-2.71 2.1-2 0-2.37-1-2.37-2.37V87c0-1.26-.64-1.42-1.33-1.42v-.39l3.13-.43v4.74c0 2.15.32 2.72 1.35 2.72s2-1.85 2-3V87c0-1.26-.64-1.42-1.33-1.42v-.39l3.13-.43v6.3c0 1.26.66 1.42 1.34 1.42v.39l-3.13.43zM89.5 92.76c1 0 1.34-.32 1.34-1.55V87c0-1.26-.64-1.42-1.34-1.42v-.39l3.13-.43v2.07a2.72 2.72 0 0 1 2.42-2.07 1 1 0 0 1 1 .93.94.94 0 0 1-1 1c-.64 0-.52-.41-1.1-.41s-1.35 1.09-1.35 2.92v2c0 1.23.3 1.55 1.33 1.55v.39H89.5zM96.42 92.76c1 0 1.33-.32 1.33-1.55V87c0-1.26-.64-1.42-1.33-1.42v-.39l3.13-.43v2.07a2.72 2.72 0 0 1 2.45-2.04 1 1 0 0 1 1 .93.94.94 0 0 1-1 1c-.64 0-.52-.41-1.1-.41s-1.35 1.09-1.35 2.92v2c0 1.23.3 1.55 1.33 1.55v.39h-4.46zM110.54 92.87a7 7 0 0 1-2.46.46c-2.74 0-4.36-1.6-4.36-4.56 0-2.69 1.33-4 3.72-4 2.8 0 3.26 1.87 3.26 3.37h-5c0 1.87.71 4.38 3.24 4.38a4.67 4.67 0 0 0 1.64-.3zm-1.64-5.45c0-1.12-.3-2-1.53-2s-1.71 1.34-1.71 2zM111.68 92.76c1 0 1.34-.32 1.34-1.55V87c0-1.26-.64-1.42-1.34-1.42v-.39l3.13-.43v2.1a3.42 3.42 0 0 1 2.92-2.1c1.82 0 2.15 1 2.15 2.37v4.06c0 1.23.3 1.55 1.34 1.55v.39h-4.47v-.39c1 0 1.33-.32 1.33-1.55V88.6c0-2.15-.27-2.72-1.14-2.72-1 0-2.17 1.85-2.17 3v2.39c0 1.23.3 1.55 1.34 1.55v.39h-4.47zM126.45 93.14a2.84 2.84 0 0 1-1 .2c-1.57 0-2.88-.25-2.88-2.33v-5.3h-1.44v-.5c2.1 0 2.63-1.83 2.72-3.19h.52v3h2.31v.73h-2.31V91c0 1.19.52 1.53 1.44 1.53a2 2 0 0 0 .66-.11zM118.46 74.56H118v-.31h1.24v.31h-.44v1.31h-.36zM120.81 75.25v-.66c-.05.21-.12.44-.18.62l-.2.63h-.28l-.17-.62c-.05-.19-.11-.42-.15-.63v1.28h-.34l.1-1.61h.41l.16.54c.05.19.1.39.14.58 0-.19.1-.4.15-.58l.17-.54h.48l.09 1.61h-.35z"/></svg>
